Coordinates
version=1
nRows=11
nColumns=36
inDegrees=yes

Units are S.I. units (second, meters, Newtons, ...)
If the header above contains a line with 'inDegrees', this indicates whether rotational values are in degrees (yes) or radians (no).

endheader
time	pelvis_tilt	pelvis_list	pelvis_rotation	pelvis_tx	pelvis_ty	pelvis_tz	hip_flexion_r	hip_adduction_r	hip_rotation_r	knee_angle_r	knee_angle_r_beta	ankle_angle_r	subtalar_angle_r	mtp_angle_r	hip_flexion_l	hip_adduction_l	hip_rotation_l	knee_angle_l	knee_angle_l_beta	ankle_angle_l	subtalar_angle_l	mtp_angle_l	lumbar_extension	lumbar_bending	lumbar_rotation	arm_flex_r	arm_add_r	arm_rot_r	elbow_flex_r	pro_sup_r	arm_flex_l	arm_add_l	arm_rot_l	elbow_flex_l	pro_sup_l
      8.30000000	    -17.03421961	      6.57963160	    -19.13951401	      0.92272438	      0.74264258	      0.07611339	     63.08048650	     -9.06452838	     -6.97420105	     73.91891599	      1.29012846	     27.62703879	     -8.70812510	     -7.49999987	     59.78507149	     -9.06412858	     -3.40074449	     73.85530748	      1.28901829	     27.25239175	     -9.38635892	     -7.49999987	    -16.39757298	     -0.88746176	     10.38071821	     62.06874078	    -10.86629181	     64.57324858	    133.93643943	     90.41300175	     57.53314964	      3.36258276	     63.98305589	    126.63110984	    102.27554957
      8.31666670	    -16.68715833	      6.36010776	    -19.08514725	      0.92242544	      0.75659582	      0.07711936	     61.06143103	     -8.94656178	     -7.49068358	     71.64911576	      1.25051298	     26.89138904	     -8.76894038	     -7.49999987	     57.78101698	     -9.02211760	     -3.58286599	     71.45583162	      1.24713953	     26.17761429	     -9.54603135	     -7.49999987	    -16.16358768	     -0.71659762	     10.42485756	     62.22617321	    -11.06746602	     64.36798145	    134.23950883	     89.64880704	     57.18138437	      3.17793394	     64.59485724	    127.69995081	    100.46161207
      8.33333330	    -16.63903614	      6.17139278	    -18.92143777	      0.92879587	      0.76400608	      0.08246385	     59.22944602	     -8.74840479	     -8.05704600	     69.44099274	      1.21197396	     26.29734634	     -8.72152411	     -7.49999987	     55.82325502	     -9.08903529	     -3.75624444	     68.87446744	      1.20208623	     25.28369836	     -9.45043058	     -7.49999987	    -15.20321471	     -0.72791604	     10.29216132	     61.39372782	    -10.40684203	     64.58814341	    134.79387573	     89.72690695	     56.30528331	      3.09610156	     65.02786393	    128.28408238	    100.47516739
      8.35000000	    -16.16955669	      5.91877230	    -18.85062909	      0.92853268	      0.77132703	      0.08215590	     57.11372383	     -8.53932651	     -8.52325732	     67.18047565	      1.17252049	     25.47911681	     -9.05297429	     -7.49999987	     53.70717201	     -9.03771665	     -3.88627110	     66.55608658	      1.16162285	     24.16029081	     -9.92143240	     -7.49999987	    -14.69073958	     -0.54803371	      9.88198613	     61.13589108	     -9.75802502	     64.11964397	    134.05506149	     89.84689617	     56.25843390	      3.06984923	     63.91470256	    127.32850245	    100.32142980
      8.36666670	    -16.13061436	      5.76148093	    -18.74075134	      0.92442072	      0.78412624	      0.08539206	     55.34938888	     -8.14703137	     -9.03960298	     64.52535080	      1.12617982	     24.62417112	     -9.05367016	     -7.49999987	     52.08954712	     -9.14800976	     -4.08617260	     63.93876281	      1.11594193	     22.99096614	    -10.07207250	     -7.49999987	    -14.26878914	     -0.42664201	      9.91469430	     61.55144032	     -9.59962158	     64.41607232	    133.57970359	     87.27118973	     56.62437874	      2.33038060	     64.21261830	    127.81436335	     97.19452438
      8.38333330	    -15.65865716	      5.57086928	    -18.69725826	      0.93500472	      0.79686212	      0.08531651	     52.70236835	     -7.94206298	     -9.61320139	     61.34350230	      1.07064609	     23.38445679	     -9.26829304	     -7.49999987	     49.47678881	     -8.97472364	     -4.39873284	     60.65014727	      1.05854476	     21.53926801	    -10.43444222	     -7.49999987	    -13.93630347	     -0.27507589	      9.44606040	     61.08712934	     -9.16159780	     65.44204820	    133.71823622	     87.75223468	     56.10660148	      1.96897975	     64.02809965	    127.50845898	     97.26648945
      8.40000000	    -15.32132876	      5.53500059	    -18.71016315	      0.94116624	      0.80221624	      0.08154364	     50.64509569	     -7.90572846	     -9.95184502	     58.68919600	      1.02431971	     22.31191441	     -9.33449938	     -7.49999987	     47.34100729	     -8.65896229	     -4.81837485	     57.91133745	      1.01074351	     20.67005760	    -10.57178562	     -7.49999987	    -13.22286871	     -0.08002415	      8.92853258	     60.92205571	     -8.88619490	     65.62551440	    134.87011349	     88.44890960	     55.51129652	      2.18249380	     63.73778450	    128.05058968	     97.38028964
      8.41666670	    -15.06393081	      5.44969181	    -18.63382851	      0.93525399	      0.81283647	      0.08573677	     48.87749123	     -7.67433121	    -10.28579359	     56.13856900	      0.97980287	     21.43208701	     -9.38397276	     -7.49999987	     45.65065147	     -8.48303779	     -5.17448289	     55.33667892	      0.96580724	     19.94382012	    -10.61775663	     -7.49999987	    -12.60521639	     -0.07840067	      8.40897523	     60.28660267	     -8.20667238	     64.77514477	    133.81980276	     88.78201393	     55.52346994	      1.67213416	     63.57489527	    127.56339911	     97.37704803
      8.43333330	    -14.75651709	      5.32076549	    -18.57536543	      0.93626450	      0.82359386	      0.08678429	     46.94766833	     -7.37469456	    -10.54599324	     53.40792142	      0.93214408	     20.56555556	     -9.31140728	     -7.49999987	     43.94567742	     -8.31989825	     -5.43547769	     52.78450810	      0.92126346	     18.90408636	    -10.73927831	     -7.49999987	    -12.29562796	     -0.00607786	      8.06994251	     60.39851884	     -7.89712447	     64.26578874	    133.58478271	     89.26893305	     55.46835861	      1.14970999	     63.91979211	    127.85205082	     97.34044871
      8.45000000	    -14.49306639	      5.20796034	    -18.50626525	      0.93624559	      0.83059459	      0.08770467	     45.43745646	     -7.07151884	    -10.81264596	     51.08047850	      0.89152253	     19.85091116	     -9.28079943	     -7.49999987	     42.62142799	     -8.24057785	     -5.69764327	     50.73256003	      0.88545021	     18.03022005	    -10.85131827	     -7.49999987	    -11.96320335	     -0.01186698	      7.83730444	     60.63530015	     -7.94070225	     64.11144361	    133.81721866	     87.72527688	     55.98532581	      1.08110431	     63.63795756	    128.65006744	     94.74089020
      8.46666670	    -14.03888308	      5.19756132	    -18.50126154	      0.94298083	      0.83736644	      0.08366163	     43.83298790	     -7.09259406	    -10.98673482	     49.06028411	      0.85626349	     19.09926062	     -9.11020381	     -7.49999987	     40.98222574	     -7.76921310	     -5.79727390	     48.72139380	      0.85034874	     17.33206588	    -11.08426594	     -7.49999987	    -11.52265258	      0.07642134	      7.46988769	     60.48987101	     -8.39312723	     63.93707687	    134.68365628	     88.26781184	     55.79342889	      1.70030394	     62.60899805	    128.78781415	     94.70290070
